<svg width="240" height="240" viewBox="0 0 240 240" fill="none" xmlns="http://www.w3.org/2000/svg">
<path d="M240 120C240 145.342 231.977 170.033 217.082 190.534C202.187 211.036 181.183 226.296 157.082 234.127C132.981 241.958 107.019 241.958 82.918 234.127C58.8167 226.296 37.8133 211.036 22.918 190.534L61.7508 162.321C70.688 174.622 83.29 183.777 97.7508 188.476C112.211 193.175 127.788 193.175 142.249 188.476C156.71 183.777 169.312 174.622 178.249 162.321C187.186 150.02 192 135.205 192 120H240Z" fill="#F4BE37"/>
<path d="M68.0864 228.19C49.8633 219.445 34.1441 206.24 22.3875 189.798L61.4325 161.879C68.4865 171.744 77.918 179.667 88.8518 184.914L68.0864 228.19Z" fill="#FF9F40"/>
<path d="M82.4513 6.02591C100.499 0.0801249 119.701 -1.49477 138.476 1.43084C157.251 4.35645 175.063 11.6989 190.446 22.8539C205.829 34.009 218.343 48.6576 226.958 65.5943C235.573 82.5309 240.043 101.271 240 120.273L192 120.164C192.026 108.763 189.344 97.5185 184.175 87.3566C179.006 77.1946 171.497 68.4054 162.268 61.7124C153.038 55.0194 142.351 50.6139 131.085 48.8585C119.82 47.1031 108.299 48.0481 97.4708 51.6155L82.4513 6.02591Z" fill="#5388D8"/>
<path d="M23.2171 190.944C12.0214 175.671 4.59933 157.965 1.55783 139.273C-1.48367 120.582 -0.0582777 101.436 5.71746 83.4008C11.4932 65.3658 21.4553 48.9538 34.7892 35.5066C48.1232 22.0595 64.4504 11.959 82.4359 6.03098L97.4615 51.6186C86.6702 55.1754 76.8739 61.2357 68.8735 69.304C60.8732 77.3723 54.8959 87.2195 51.4305 98.0405C47.965 108.861 47.1098 120.349 48.9347 131.564C50.7596 142.779 55.2128 153.402 61.9303 162.566L23.2171 190.944Z" fill="#0D2535"/>
</svg>
