<svg width="240" height="240" viewBox="0 0 240 240" fill="none" xmlns="http://www.w3.org/2000/svg">
<path d="M240 120C240 145.342 231.977 170.033 217.082 190.534C202.187 211.036 181.183 226.296 157.082 234.127C132.981 241.958 107.019 241.958 82.918 234.127C58.8167 226.296 37.8133 211.036 22.918 190.534L61.7508 162.321C70.688 174.622 83.29 183.777 97.7508 188.476C112.211 193.175 127.788 193.175 142.249 188.476C156.71 183.777 169.312 174.622 178.249 162.321C187.186 150.02 192 135.205 192 120H240Z" fill="#F4BE37"/>
<path d="M82.4513 6.02591C98.9972 0.574868 116.532 -1.20829 133.836 0.800319C151.141 2.80893 167.8 8.56115 182.658 17.6573C197.515 26.7535 210.214 38.9754 219.871 53.474C229.529 67.9726 235.914 84.4001 238.583 101.615C241.252 118.83 240.141 136.42 235.327 153.162C230.513 169.904 222.111 185.398 210.705 198.566C199.3 211.734 185.164 222.26 169.28 229.414C153.396 236.568 136.145 240.178 118.725 239.993L119.235 191.996C129.687 192.107 140.038 189.941 149.568 185.649C159.098 181.356 167.58 175.04 174.423 167.139C181.266 159.239 186.308 149.943 189.196 139.897C192.085 129.852 192.751 119.298 191.15 108.969C189.549 98.64 185.717 88.7835 179.923 80.0844C174.128 71.3853 166.509 64.0521 157.595 58.5944C148.68 53.1367 138.684 49.6854 128.302 48.4802C117.919 47.275 107.398 48.3449 97.4708 51.6155L82.4513 6.02591Z" fill="#5388D8"/>
<path d="M23.2171 190.944C12.0214 175.671 4.59933 157.965 1.55783 139.273C-1.48367 120.582 -0.0582777 101.436 5.71746 83.4008C11.4932 65.3658 21.4553 48.9538 34.7892 35.5066C48.1232 22.0595 64.4504 11.959 82.4359 6.03098L97.4615 51.6186C86.6702 55.1754 76.8739 61.2357 68.8735 69.304C60.8732 77.3723 54.8959 87.2195 51.4305 98.0405C47.965 108.861 47.1098 120.349 48.9347 131.564C50.7596 142.779 55.2128 153.402 61.9303 162.566L23.2171 190.944Z" fill="#0D2535"/>
</svg>
